<svg xmlns="http://www.w3.org/2000/svg" width="668.571" height="668.571" viewBox="0 0 176.893 176.893"><path d="M0 0v176.893h176.893V0H0zm99.774 67.442c.78-.002 1.661.001 2.661.007 6.004.03 6.907.085 7.95.481 1.54.585 3.127 1.906 3.923 3.265.787 1.343 1.319 3.924.988 4.797-.389 1.027-1.162 1.68-1.99 1.68-1.237 0-1.87-.696-2.217-2.435-.2-1.012-.509-1.748-.912-2.184-1.13-1.218-1.709-1.317-7.716-1.311-4.937.005-5.635.054-6.532.46-1.804.82-1.962 1.345-1.963 6.511 0 5.01.126 5.487 1.704 6.438.726.438 1.33.484 7.674.594 6.492.112 6.94.148 7.835.634 1.395.756 3.095 2.618 3.798 4.161l.617 1.353-.07 5.889c-.068 5.53-.104 5.953-.6 6.957-.716 1.448-2.387 3.14-3.782 3.826-1.13.556-1.283.567-8.51.615-5.956.04-7.538-.017-8.287-.297-2.959-1.104-5.128-4.245-5.128-7.425 0-.857.13-1.16.737-1.729 1.363-1.273 3.035-.723 3.504 1.153.122.489.287 1.156.366 1.483.08.326.41.892.735 1.258 1.107 1.245 1.732 1.353 7.792 1.353 5.79 0 6.702-.123 7.722-1.042 1.144-1.03 1.225-1.466 1.225-6.663v-4.88l-1.144-1.186-1.144-1.187h-6.517c-5.86 0-6.643-.046-7.778-.46-1.452-.532-1.686-.694-3.085-2.134-1.96-2.017-2.057-2.437-2.057-8.802 0-5.456.013-5.605.587-6.763.323-.652 1.162-1.742 1.866-2.423 1.764-1.71 2.287-1.98 7.748-1.994zm47.992.021c6.439 0 6.834.026 8.004.52 2.747 1.162 4.331 3.153 4.947 6.22.314 1.565-.153 2.789-1.234 3.237-1.457.603-2.723-.288-3.08-2.168-.287-1.514-.809-2.4-1.748-2.969-.662-.4-1.359-.455-6.628-.522-5.538-.07-5.949-.045-6.886.412-.548.268-1.237.842-1.53 1.276l-.535.79v28.544l.643.764c1.252 1.488 1.955 1.636 7.786 1.64 2.878.002 5.62-.106 6.106-.241 1.721-.478 2.5-1.493 2.903-3.789.21-1.194.678-1.684 1.741-1.827.8-.107 1.05-.022 1.74.595.769.688.803.787.75 2.206-.03.818-.163 1.595-.296 1.728-.133.133-.242.442-.242.686 0 1.06-2.114 3.246-4.036 4.174l-1.306.63-6.885.058c-6.792.059-6.905.052-8.257-.51-.754-.313-1.553-.713-1.775-.89-1.134-.901-1.942-1.902-2.57-3.18l-.694-1.414V73.28l.797-1.487c.952-1.775 2.53-3.206 4.257-3.857 1.147-.432 1.84-.473 8.028-.473zm-130.215.238h9.198c7.73 0 9.402.06 10.475.379 2.592.77 4.483 2.747 5.32 5.563.276.93.375 2.298.375 5.156 0 4.36-.23 5.464-1.583 7.603-.435.689-.791 1.32-.791 1.402 0 .084.281.52.626.972.344.451.876 1.53 1.182 2.397.51 1.442.557 1.966.561 6.161.004 3.65-.076 4.837-.392 5.817-.797 2.47-2.105 4.004-4.351 5.103l-1.306.64-9.645.074-9.645.073-.683-.587-.683-.587-.065-19.464-.064-19.464.736-.62.735-.618zm48.538 0c1.325 0 2.08.641 2.58 2.19.36 1.12 1.442 4.146 4.435 12.411.52 1.436 1.1 2.963 1.288 3.391.188.43.342.938.342 1.132 0 .193.103.536.229.763.126.227.936 2.389 1.799 4.805.863 2.416 1.998 5.567 2.523 7.004.524 1.436 1.218 3.36 1.542 4.273.324.914.688 1.908.81 2.208.36.893.253 1.644-.333 2.326-.44.512-.77.647-1.625.666-1.701.037-1.575.246-4.079-6.743l-1.063-2.968H57.573l-1.169 3.324c-.643 1.828-1.269 3.51-1.391 3.736-.123.227-.223.581-.223.786 0 .206-.105.308-.234.228-.13-.08-.178.003-.109.185.35.912-1.682 1.888-2.87 1.38-1.21-.518-1.429-1.587-.761-3.703.289-.914.589-1.716.667-1.78.079-.066.257-.547.398-1.069.14-.522.91-2.713 1.712-4.867a299.9 299.9 0 0 0 1.901-5.224 349.96 349.96 0 0 1 1.788-4.986 714.1 714.1 0 0 0 2.056-5.698c.392-1.11 1.068-2.98 1.504-4.155.435-1.175 1.13-3.098 1.542-4.273 1.782-5.072 1.97-5.342 3.705-5.342zm59.342 0c.372 0 .903.279 1.317.694l.694.694v38.472l-.534.615c-.61.702-1.946.988-2.671.574-1.105-.632-1.068.052-1.068-20.3 0-10.608.066-19.459.147-19.67.192-.502 1.324-1.08 2.115-1.08zM20.6 71.974v13.652l7.262-.052c3.994-.03 7.614-.119 8.046-.2.447-.084 1.13-.502 1.583-.97l.797-.823V74.138l-.785-.811c-.433-.446-1.193-.933-1.69-1.082-.59-.176-3.388-.27-8.058-.27H20.6zm45.46 4.043c-.147-.012-.263.353-.458.968a27.252 27.252 0 0 1-.716 1.993c-.17.392-.546 1.407-.837 2.256-.51 1.484-2.237 6.252-3.937 10.867-.447 1.211-.812 2.253-.812 2.315 0 .063 3.045.114 6.767.114 4.413 0 6.767-.084 6.767-.241 0-.133-.104-.426-.232-.653-.127-.227-1.1-2.87-2.161-5.873-1.062-3.003-2.018-5.674-2.126-5.935-.108-.262-.58-1.586-1.051-2.943-.703-2.029-.988-2.851-1.203-2.868zm-45.46 14.002v14.483h7.657c7.222-.002 7.7-.029 8.43-.474 1.592-.97 1.718-1.467 1.717-6.768 0-5.35-.078-5.635-1.824-6.692-.893-.54-.994-.547-8.442-.548l-7.538-.001z" fill="#eaf2ef"/></svg>