<svg xmlns="http://www.w3.org/2000/svg" width="668.571" height="668.571" viewBox="0 0 176.893 176.893"><path d="M0 0v176.893h176.893V0H0zm89.85 50.44c9.252 0 16.518 1.87 21.796 5.612 5.311 3.741 9.253 9.487 11.826 17.237l-20.044 4.46c-.701-2.238-1.436-3.876-2.204-4.911-1.27-1.737-2.823-3.073-4.66-4.009-1.838-.935-3.892-1.403-6.163-1.403-5.145 0-9.086 2.072-11.825 6.214-2.072 3.073-3.107 7.9-3.107 14.48 0 8.151 1.236 13.747 3.708 16.787 2.472 3.006 5.945 4.51 10.422 4.51 4.342 0 7.616-1.22 9.82-3.659 2.239-2.438 3.86-5.979 4.861-10.622l19.893 6.012c-1.336 5.579-3.44 10.239-6.314 13.98-2.872 3.742-6.447 6.565-10.722 8.469-4.243 1.904-9.655 2.856-16.236 2.856-7.983 0-14.514-1.152-19.591-3.457-5.044-2.339-9.404-6.431-13.078-12.277-3.675-5.846-5.512-13.328-5.512-22.448 0-12.16 3.223-21.496 9.67-28.01 6.481-6.547 15.634-9.82 27.46-9.82z" fill="#eaf2ef"/></svg>