<svg xmlns="http://www.w3.org/2000/svg" width="273.557" height="273.557" viewBox="0 0 72.379 72.379"><path d="M0 0v72.379h72.379V0zm16.382 31.97c1.586-.001 1.934.092 2.037.36.41 1.067.004 1.208-3.49 1.213-1.84.002-3.5.101-3.688.22-.247.157-.32.842-.265 2.444l.078 2.226 3.572.133c3.52.13 3.573.141 3.66.763.05.348-.07.733-.264.856-.592.376-6.06.25-7.23-.166-1.562-.557-1.722-.926-1.722-3.972 0-2.539.035-2.715.681-3.322.649-.61.876-.646 4.595-.726.841-.019 1.507-.03 2.036-.03zm38.733.014c.713.021.773.58.853 3.803l.065 2.646 3.042.065c3.854.083 4.234.17 4.234.97 0 .346-.188.7-.418.789-.6.23-5.892.147-6.986-.11-.507-.12-1.195-.535-1.53-.923-.571-.665-.603-.894-.533-3.923l.075-3.218.85-.082c.13-.012.246-.02.348-.017zm-6.973.005c4.181-.026 4.725.714 4.542 4.764-.11 2.436-.493 2.98-2.38 3.384-1.28.274-3.8.33-4.854.108l-1.132-.241c-.33-.071-.837-.364-1.124-.651-.453-.453-.523-.887-.523-3.255 0-2.595.035-2.764.683-3.373.633-.595.915-.647 3.903-.721.311-.008.607-.014.885-.015zm-23.288.094h3.576l.639.743c.576.67.638.983.638 3.205 0 3.036-.367 3.666-2.397 4.1-1.458.314-3.823.331-5.276.04-1.331-.265-2.089-.74-2.257-1.415-.081-.323-.112-1.706-.07-3.073.075-2.38.11-2.51.825-3.043.673-.502 1.1-.557 4.322-.557zm6.308 0h8.91l.662.77c.552.642.637.95.51 1.852-.197 1.41-.198 1.463-.003 2.468.484 2.492-.535 3.059-5.713 3.179-2.11.049-3.989-.014-4.175-.141-.255-.174-.32-1.204-.264-4.18zm1.72 1.439V35.391h2.86c2.077 0 3-.105 3.373-.382.411-.305.455-.477.221-.86-.25-.41-.735-.489-3.373-.553zm-8.106.017c-3.162 0-3.271.087-3.271 2.61 0 1.136.08 2.143.176 2.24.323.323 5.517.198 5.856-.14.184-.185.318-1.067.318-2.099 0-2.425-.22-2.611-3.08-2.611zm22.928.01c-1.176.01-2.366.102-2.669.263-.438.235-.512.569-.512 2.338 0 1.135.084 2.146.185 2.248.102.101 1.441.15 2.977.11l2.792-.075.078-2.226c.055-1.602-.019-2.287-.265-2.443-.247-.157-1.41-.226-2.586-.215zm-14.822 3.43V38.565h3.183c2.598 0 3.212-.074 3.337-.4.36-.938-.379-1.188-3.51-1.188z" fill="#eaf2ef"/></svg>