<svg xmlns="http://www.w3.org/2000/svg" width="668.571" height="668.571" viewBox="0 0 176.893 176.893"><path d="M0 0v176.893h176.893V0H0zm43.074 61.799c6.488 0 11.582 1.312 15.282 3.935 3.724 2.623 6.488 6.651 8.291 12.085l-14.052 3.127c-.492-1.57-1.008-2.717-1.546-3.443-.89-1.218-1.98-2.155-3.267-2.81-1.289-.656-2.729-.984-4.322-.984-3.606 0-6.37 1.452-8.29 4.356-1.453 2.155-2.179 5.539-2.179 10.153 0 5.715.867 9.638 2.6 11.77 1.733 2.107 4.169 3.161 7.307 3.161 3.045 0 5.34-.855 6.886-2.564 1.57-1.71 2.705-4.193 3.408-7.449l13.947 4.216c-.937 3.912-2.412 7.179-4.427 9.802-2.014 2.623-4.52 4.602-7.517 5.937-2.975 1.335-6.77 2.003-11.383 2.003-5.598 0-10.177-.808-13.737-2.424-3.536-1.64-6.593-4.509-9.17-8.608-2.576-4.098-3.864-9.345-3.864-15.739 0-8.525 2.26-15.071 6.78-19.638 4.544-4.59 10.962-6.886 19.253-6.886zm44.406 7.448h11.348v13.526h13.525v11.382H98.828v13.455H87.48V94.155H74.025V82.773H87.48V69.247zm47.498 0h11.348v13.526h13.526v11.382h-13.526v13.455h-11.348V94.155h-13.455V82.773h13.455V69.247z" fill="#eaf2ef"/></svg>