<svg xmlns="http://www.w3.org/2000/svg" width="668.571" height="668.571" viewBox="0 0 176.893 176.893"><path d="M0 0v176.893h176.893V0H0zm63.925 59.788c6.977 0 12.456 1.41 16.436 4.231 4.005 2.822 6.977 7.154 8.917 12.998L74.164 80.38c-.529-1.688-1.083-2.922-1.662-3.703-.958-1.31-2.129-2.318-3.514-3.023-1.385-.705-2.935-1.058-4.648-1.058-3.879 0-6.851 1.562-8.917 4.686-1.561 2.317-2.342 5.957-2.342 10.919 0 6.146.932 10.365 2.796 12.657 1.864 2.267 4.484 3.4 7.86 3.4 3.274 0 5.742-.918 7.404-2.757 1.688-1.839 2.91-4.51 3.666-8.01l15 4.534c-1.008 4.206-2.595 7.72-4.761 10.541-2.166 2.821-4.862 4.95-8.086 6.386-3.199 1.435-7.28 2.154-12.241 2.154-6.02 0-10.946-.87-14.774-2.608-3.804-1.763-7.09-4.849-9.862-9.257-2.77-4.408-4.156-10.05-4.156-16.927 0-9.169 2.431-16.209 7.293-21.12 4.886-4.938 11.788-7.406 20.705-7.406zm44.773 0h10.769l-2.758 13.526h8.274l2.72-13.526h10.73l-2.644 13.526h5.177v10.428h-7.293l-1.927 9.56h9.22v10.428h-11.297l-2.683 13.3h-10.769l2.645-13.3h-8.237l-2.72 13.3H97.212l2.759-13.3h-5.29V93.302h7.292l1.965-9.56H94.68V73.314h11.335l2.682-13.526zm6.008 23.954l-2.002 9.56h8.274l1.965-9.56h-8.237z" fill="#eaf2ef"/></svg>