<svg xmlns="http://www.w3.org/2000/svg" width="273.559" height="273.559" viewBox="0 0 72.379 72.379"><path d="M0 0v72.379h72.379V0zm36.419 5.029c3.134.032 6.313.531 9.444 1.519 5.732 1.808 11.48 5.945 15.284 10.998 6.03 8.01 7.742 19.166 4.433 28.862-2.546 7.46-8.339 14.066-15.448 17.618-5.117 2.556-11.731 3.782-17.122 3.172-7.596-.86-14.185-4.133-19.425-9.651-5.66-5.962-8.448-13.015-8.448-21.378 0-8.892 3.2-16.383 9.642-22.574 5.91-5.678 13.63-8.649 21.64-8.566zm-.247 2.324c-2.096 0-4.194.162-5.733.487-7.472 1.575-13.912 5.863-18.174 12.1-1.064 1.558-2.392 3.92-2.392 4.254 0 .073 11.835.133 26.3.133 14.464 0 26.298-.06 26.298-.133 0-.335-1.328-2.696-2.392-4.254-4.261-6.237-10.701-10.525-18.174-12.1-1.539-.325-3.636-.487-5.733-.487zM8.692 27.07l-.396 1.434c-.665 2.403-.912 4.529-.905 7.79.01 3.678.415 6.206 1.512 9.388l.802 2.327H62.64l.802-2.327c1.097-3.182 1.505-5.71 1.513-9.389.006-3.26-.24-5.386-.906-7.79l-.396-1.433h-27.48zm11.788 6.481c.986 0 1.286.127 2.007.848.78.78.847.97.847 2.38 0 1.864-.445 2.804-1.584 3.345-1.035.49-1.768.502-2.821.044-1.565-.681-2.213-2.79-1.462-4.756.511-1.34 1.355-1.86 3.013-1.86zm29.777.008c.516-.01 1.02.079 1.142.275.097.156.479 1.306.849 2.555.508 1.713.808 2.333 1.22 2.52.345.159.52.434.474.749-.061.432-.29.508-1.723.572-1.39.061-1.678.003-1.82-.368a.601.601 0 0 1 .218-.724c.683-.5.431-.851-.61-.851-1.04 0-1.293.352-.61.851a.604.604 0 0 1 .223.713c-.131.343-.478.43-1.717.43-.854 0-1.627-.075-1.718-.166-.365-.365-.144-1.049.362-1.125.419-.063.702-.564 1.375-2.427.466-1.291.97-2.497 1.123-2.68.168-.202.696-.313 1.212-.324zm-33.653.008v1.461c0 .992-.107 1.503-.334 1.59-.546.21-1.013-.243-1.025-.993-.012-.65-.085-.703-1.006-.703-.77 0-1.014.105-1.083.463-.049.255.037.59.192.744.208.208.32.134.43-.288.09-.349.305-.539.552-.492.585.111.708 2.48.154 2.94-.342.283-.418.254-.54-.21-.211-.81-.882-.693-.785.137.057.483.257.717.703.82.402.095.623.32.623.634 0 .437-.206.495-2.006.56-1.103.038-2.084-.007-2.18-.105-.387-.386-.159-1.057.385-1.135.518-.073.566-.224.633-1.992.069-1.827.047-1.917-.496-1.994-.627-.09-.927-.908-.443-1.207.168-.104 1.637-.198 3.265-.21zm44.33.01c.69-.009 1.332.1 1.54.35.244.295.244.448-.001.745-.171.206-.465.374-.654.374-.267 0-.344.516-.347 2.306-.001 1.268-.098 2.454-.213 2.635-.278.439-2.035.284-2.316-.204-.118-.206-.6-1.216-1.069-2.244l-.853-1.87-.018 1.683c-.015 1.49.038 1.683.456 1.683.503 0 .77.423.592.935-.115.33-3.326.458-3.64.145-.378-.378-.142-1.049.395-1.125.518-.074.566-.225.633-1.993.07-1.827.047-1.917-.496-1.994-.635-.091-.924-.91-.429-1.215.508-.314 3.155-.246 3.41.087.124.165.61 1.246 1.078 2.403l.852 2.104.076-1.474c.076-1.466-.106-1.849-1.046-2.194-.202-.075-.202-.228 0-.57.205-.35 1.166-.556 2.05-.567zm-36.727.098h2.654c2.26 0 2.731.07 3.178.475.683.619.684 1.753.003 2.23l-.521.366.521.521c.287.287.522.789.522 1.116 0 .392.176.64.52.73.336.088.49.296.434.59-.065.34-.357.473-1.162.531-1.352.098-1.787-.258-1.787-1.462 0-.73-.115-.987-.496-1.108-.273-.086-.61-.087-.748 0-.41.253-.287 1.125.184 1.299.566.208.797.567.637.985-.091.237-.654.334-1.93.334-.99 0-1.876-.075-1.968-.166v-.001c-.377-.378-.142-1.049.395-1.125.518-.074.567-.225.634-1.993.069-1.83.047-1.917-.5-1.995-.42-.06-.57-.244-.57-.703zm7.478 0h6.232l.074 1.269c.053.91-.035 1.359-.312 1.588-.5.416-1.133-.059-1.133-.851 0-.722-.247-.947-.662-.602-.345.286-.474 2.803-.183 3.562.083.216.412.394.732.394.68 0 .924.293.71.85-.213.556-4.528.587-4.74.035v-.001c-.207-.54.107-.884.803-.884.614 0 .618-.016.546-2.037-.048-1.353-.177-2.07-.384-2.14-.202-.066-.312.156-.312.635 0 .855-.501 1.377-1.101 1.147-.335-.129-.403-.437-.343-1.563zm6.73 0h2.655c2.26 0 2.731.07 3.178.475.683.619.684 1.753.003 2.23l-.521.366.521.521c.287.287.521.789.521 1.116 0 .392.177.64.52.73.337.088.49.296.435.59-.065.34-.356.473-1.162.531-1.352.098-1.787-.258-1.787-1.462 0-.73-.115-.987-.496-1.108-.273-.086-.61-.087-.748 0-.41.253-.286 1.125.185 1.299.565.208.796.567.636.985-.091.237-.654.334-1.93.334-.99 0-1.876-.074-1.967-.166v-.001c-.379-.378-.143-1.049.394-1.125.518-.074.566-.225.633-1.993.07-1.83.048-1.917-.498-1.995-.422-.06-.571-.244-.571-.703zm-18.072 1.123c-.672 0-1.246 1.026-1.246 2.226 0 1.86 1.227 2.71 2.104 1.457.565-.806.505-2.57-.11-3.184-.274-.275-.611-.5-.748-.5zm29.77.12c-.066.01-.138.258-.277.802-.28 1.09-.22 1.32.337 1.32.186 0 .322-.246.308-.56a6.457 6.457 0 0 0-.2-1.184c-.072-.252-.118-.387-.169-.379zm-22.274.128c-.656 0-.765.092-.765.64 0 .551.095.629.685.56.49-.056.708-.237.765-.639.068-.477-.034-.56-.685-.56zm14.209 0c-.656 0-.765.092-.765.64 0 .551.095.629.685.56.49-.056.708-.237.765-.639.068-.477-.035-.56-.685-.56zm-5.85 15.705c-13.656 0-24.83.09-24.83.2 0 .297 1.952 2.998 3.236 4.48.613.709 1.935 1.978 2.937 2.82 6.79 5.71 15.612 7.96 24.364 6.211 5.738-1.145 10.652-3.807 14.869-8.053 1.585-1.596 3.775-4.406 4.106-5.269.134-.35-2.302-.389-24.681-.389z" fill="#eaf2ef"/></svg>