<svg xmlns="http://www.w3.org/2000/svg" width="668.571" height="668.571" viewBox="0 0 176.893 176.893"><path d="M0 0v176.893h176.893V0H0zm102.262 19.41c.008-.009.083.06.166.153.644.712 1.321 1.752 1.882 2.889.664 1.347 1.035 2.424 1.32 3.835.264 1.315.3 1.712.298 3.351-.001 1.618-.055 2.211-.324 3.562-.738 3.716-2.598 7.552-5.553 11.451-2.095 2.765-4.845 5.65-8.068 8.464a82.376 82.376 0 0 1-3.05 2.54c-2.15 1.729-3.13 2.584-4.472 3.902-4.22 4.143-6.422 7.965-6.896 11.963-.085.719-.084 2.123.002 2.879.285 2.491 1.26 5.074 3.033 8.026.823 1.371 1.475 2.349 3.45 5.174 2.415 3.456 3.214 4.72 4.145 6.563.474.937.515 1.031.45 1.026-.017-.001-.473-.408-1.012-.902-7.317-6.71-11.157-10.839-13.816-14.855-2.99-4.517-4.016-8.365-3.219-12.083.12-.56.451-1.54.73-2.161.887-1.98 2.757-4.42 5.328-6.955 2.184-2.152 3.771-3.494 8.95-7.567 3.669-2.884 4.897-3.883 6.526-5.304 4.352-3.8 7.146-7.184 8.874-10.752 1.036-2.137 1.645-4.227 1.947-6.677.108-.877.108-3.645 0-4.606a33.775 33.775 0 0 0-.539-3.177c-.091-.4-.16-.732-.152-.74zm17.304 28.199c.021-.002.032-.001.032.004 0 .011-.187.13-.416.262-.228.133-1.125.665-1.993 1.181-10.587 6.303-16.7 11.193-19.202 15.363-.913 1.52-1.352 2.887-1.404 4.371-.054 1.522.29 2.899 1.162 4.649.703 1.412 1.42 2.526 3.547 5.498 1.599 2.235 1.924 2.767 2.37 3.885 1.212 3.038.758 6.186-1.346 9.337-1.766 2.646-5.001 5.484-8.605 7.549-.29.166-.545.302-.566.302-.02 0 .218-.255.531-.565 2.58-2.56 3.95-5.671 3.71-8.42-.099-1.114-.356-2.032-.86-3.064-.466-.952-.914-1.613-1.794-2.644-3.387-3.972-5.28-7.646-5.843-11.345-.116-.761-.162-2.534-.085-3.29.311-3.058 1.556-5.798 3.932-8.652.459-.55 1.742-1.859 2.424-2.47 4.516-4.05 11.414-7.738 19.725-10.543 1.779-.6 4.365-1.376 4.681-1.408zm8.192 46.48c.178-.002.362 0 .552.004 1.458.031 2.484.194 3.72.589 3.74 1.195 6.435 4.004 7.12 7.418.888 4.435-1.578 9.025-6.862 12.773-3.473 2.463-8.351 4.607-14.033 6.167a82.79 82.79 0 0 0-.843.234c-.04.013-.074.006-.074-.014s.068-.103.152-.184a2.1 2.1 0 0 0 .267-.33c.09-.144.193-.227.477-.38 4.945-2.664 8.083-4.856 10.728-7.497 1.611-1.608 2.674-3.013 3.475-4.59.504-.995.784-1.782 1.012-2.853.104-.488.113-.617.115-1.535 0-.879-.01-1.062-.095-1.48a7.9 7.9 0 0 0-1.578-3.344c-.353-.437-1.152-1.196-1.586-1.507-1.83-1.311-4.049-1.945-6.049-1.728-.767.084-2.262.426-3.233.74-.26.085-.498.154-.528.154-.136 0 .537-.724.997-1.072.61-.463 1.437-.8 2.765-1.126a14.017 14.017 0 0 1 3.5-.44zM71.87 95.372c.337-.003.601.002.75.02l.299.033-.981.25c-5.733 1.455-10.326 3.093-12.228 4.359-1.92 1.278-1.42 2.257 1.523 2.985 2.707.67 6.868 1.004 13.285 1.069 6.44.064 14.87-.275 22.37-.903 5.902-.493 12.88-1.388 19.657-2.518.772-.13 1.422-.228 1.444-.22.021.006-.236.135-.572.285-1.593.711-3.894 1.935-5.17 2.75-.633.404-.603.393-2.18.766-5.19 1.227-11.153 2.111-18.127 2.69-2.882.239-5.671.396-9.532.537-1.575.058-8.858.085-10.513.04-12.738-.351-21.498-1.846-23.033-3.932-.43-.584-.33-1.14.317-1.786.44-.437.967-.774 2.031-1.298 5.126-2.521 11.244-4.302 16.847-4.902a46.718 46.718 0 0 1 3.813-.225zm-4.831 15.696c.007.008-.156.162-.362.343-1.02.898-1.608 1.907-1.522 2.61.135 1.1 1.535 1.862 4.096 2.234 1.585.23 6.3.628 9.127.77 8.65.435 17.133-.248 27.549-2.218l1.106-.209.229.201c1.502 1.319 3.225 2.386 4.947 3.064.288.113.523.216.523.229 0 .047-2.696.772-4.415 1.188-6.583 1.59-13.193 2.523-20.471 2.888-1.216.06-6.472.116-7.506.078-5.21-.188-9.089-.61-12.528-1.361-3.966-.867-6.718-2.074-7.733-3.393-.32-.417-.46-.764-.48-1.198-.034-.694.22-1.239.887-1.91 1.078-1.084 3.115-2.152 5.988-3.14.303-.105.557-.184.565-.176zm3.264 15.137c.023.008-.091.104-.254.215-.385.264-.785.657-.99.975-.347.536-.31.972.12 1.401.751.75 2.364 1.198 5.595 1.556 10.417 1.154 15.99.922 27.018-1.123l.896-.166.457.27c1.7 1.01 4.24 2.258 6.334 3.114.45.185.806.35.789.367-.091.09-2.22.92-3.571 1.391-6.85 2.39-14.978 3.605-22.71 3.392-8.479-.233-16.026-2.097-19.056-4.704-1.295-1.115-1.595-2.357-.837-3.466.689-1.008 2.289-1.958 4.666-2.769.758-.258 1.486-.472 1.543-.453zm-14.191 9.989c1.372.005 2.485.197 3.231.585.36.187.427.276.182.236-.206-.033-1.539.041-2.195.122-1.884.234-3.552.632-5.7 1.358-2.29.776-4.042 1.661-4.823 2.438-.949.944-.61 1.678 1.113 2.408 4.172 1.768 12.312 3.038 22.823 3.56 3.63.18 5.854.236 10.364.264 14.062.087 28.14-.852 38.193-2.548 6.14-1.037 9.856-2.252 11.38-3.722 1.07-1.03 1.109-2.244.107-3.315-.108-.116-.174-.21-.145-.21.084 0 .848.404 1.186.627.64.423 1.077.87 1.3 1.335.182.375.215.91.08 1.308-.138.409-.37.766-.77 1.18-1.25 1.299-3.776 2.598-7.36 3.786-8.971 2.974-22.626 4.866-37.808 5.241-1.441.036-8.409.045-9.894.014a237.388 237.388 0 0 1-28.448-2.318c-2.416-.344-4.518-.672-5.48-.855-5.257-1.003-7.095-2.778-5.22-5.043 1.41-1.703 5.016-3.608 9.391-4.96 3.205-.99 6.207-1.5 8.493-1.491zm83.265 8.23c.011.011-.012.219-.052.46-.538 3.27-4.043 5.988-10.429 8.09-4.866 1.6-11.293 2.808-19.086 3.585-4.29.429-8.28.678-13.733.858-1.283.043-9.335.086-10.683.057-10.049-.212-17.545-.855-23.116-1.981-1.723-.348-3.57-.848-4.66-1.26-.87-.33-1.839-.815-1.711-.857.026-.01.477.05 1.002.132 11.3 1.756 26.784 2.282 40.96 1.389 18.636-1.173 34.39-4.705 40-8.967.468-.356 1.061-.932 1.295-1.259.105-.147.2-.259.213-.247z" fill="#eaf2ef"/></svg>