<svg xmlns="http://www.w3.org/2000/svg" width="668.571" height="668.571" viewBox="0 0 176.893 176.893"><path d="M0 0v176.893h176.893V0H0zm116.712 50.441c6.672.036 12.048 2.017 16.109 5.937 2.83 2.733 4.977 5.783 4.445 6.316-.198.198-2.778 1.932-5.733 3.854l-5.373 3.494-.796-.909c-3.997-4.563-5.231-5.286-9.064-5.311-2.123-.014-3.019.138-4.08.692-3.918 2.047-4.696 7.514-1.522 10.688 1.503 1.503 3.256 2.443 11.085 5.944 12.736 5.696 17.635 10.14 19.701 17.875.78 2.921.775 8.882-.011 11.873-1.697 6.46-6.838 11.654-13.784 13.928-4.566 1.495-10.771 2.014-15.995 1.338-7.712-.997-14.976-4.842-19.341-10.237-1.72-2.125-3.364-4.874-3.073-5.136.187-.168 10.354-6.07 11.43-6.636.665-.349.877-.183 2.365 1.844 3.145 4.284 7.172 6.504 12.413 6.844 4.068.263 7.21-.674 9.317-2.783 1.91-1.909 2.442-3.688 1.868-6.25-.761-3.403-2.934-5.051-11.75-8.912-6.486-2.84-10.103-4.76-12.827-6.812-5.576-4.2-8.394-9.954-8.394-17.138 0-8.365 3.745-14.517 11.038-18.133 2.959-1.467 5.626-2.094 9.86-2.318a36.343 36.343 0 0 1 2.112-.052zm-51.227.613H80.43V79.73c0 27.427-.03 28.79-.67 31.298-1.953 7.633-7.174 12.858-14.635 14.646-2.75.659-9.022.93-11.712.506-7.744-1.218-13.871-5.364-17.666-11.952l-.92-1.597 1.466-.928c2.413-1.526 10.843-6.588 10.972-6.588.066 0 .54.717 1.055 1.594 1.302 2.222 3.439 4.454 5.065 5.29 2.11 1.087 5.968 1.036 8.189-.107 1.387-.714 1.864-1.218 2.705-2.863l1.02-1.995.094-27.99.092-27.989z" fill="#eaf2ef"/></svg>