<svg xmlns="http://www.w3.org/2000/svg" width="668.571" height="668.571" viewBox="0 0 176.893 176.893"><path d="M0 0v176.893h176.893V0H0zm103.387 70.854c3.387.011 6.947.548 7.477 1.406.102.166.04.87-.141 1.563l-.648 2.497-.321 1.235-1.168-.496c-.666-.282-2.453-.558-4.148-.64-2.547-.123-3.248-.042-4.835.558-3.46 1.308-5.63 4.124-6.467 8.392-.777 3.963.197 9.215 2.16 11.654 2.627 3.263 7.052 4.494 11.807 3.285 1.035-.263 2.082-.508 2.328-.544.315-.046.564.536.843 1.973.593 3.052.604 3.015-1.054 3.619-1.974.718-9.323.935-11.367.335-1.988-.584-3.804-1.385-4.437-1.958-.308-.28-.717-.388-.952-.252-.226.13-.307.122-.179-.02.129-.141-.448-.978-1.282-1.859-3.716-3.93-5.282-10.825-3.942-17.36.543-2.647 1.9-5.78 3.143-7.258.445-.529.696-1.108.568-1.314-.132-.214-.093-.285.093-.17.406.25 1.426-.848 1.11-1.197-.13-.143-.05-.152.18-.02.249.144.686-.008 1.096-.384.85-.778 2.667-1.684 4.916-2.453 1.217-.416 3.187-.599 5.22-.592zm-28.902.018c.33-.001.696 0 1.106.002 2.96.019 3.928.149 5.408.728 2.043.8 2.048.815 1.206 3.796-.643 2.279-.733 2.319-3.165 1.411-.776-.29-2.333-.533-3.46-.541-3.208-.024-4.964 1.18-5.228 3.586-.247 2.262.65 3.194 5.366 5.578 4.555 2.302 6.065 3.454 7.314 5.579.8 1.36.868 1.737.868 4.769 0 2.748-.114 3.53-.69 4.731-.869 1.81-2.796 3.567-5.073 4.625-1.535.714-2.227.828-5.368.89-1.983.038-4.142-.064-4.799-.227-2.319-.576-4.32-1.604-4.173-2.144.573-2.116.838-3.829.642-4.146-.148-.24-.1-.296.129-.154.21.13.362.032.362-.234 0-.355.514-.238 2.273.516 1.97.845 2.65.977 5.108.989 2.221.01 3.023-.109 3.7-.552 2.497-1.635 2.782-5.227.572-7.226-.351-.319-.793-.484-.98-.368-.188.116-.303.048-.255-.15.047-.2-1.113-.884-2.58-1.523-3.012-1.312-5.202-2.722-6.356-4.093-.432-.514-.894-.835-1.027-.716-.133.12-.151.059-.04-.136.11-.195-.043-.83-.342-1.41-.397-.773-.543-1.818-.543-3.88 0-2.54.092-2.99.926-4.494.51-.92 1.356-2.036 1.881-2.48.526-.445.908-.963.85-1.15-.057-.189-.012-.249.103-.135.113.114 1.007-.169 1.986-.627 1.413-.663 1.969-.803 4.28-.814zm74.478.294v29.004h12.855V105.813H143l.08-17.27.082-17.271 2.9-.054 2.901-.052zm-126.05.002c5.03.003 5.64.065 7.326.742 2.284.917 4.092 2.684 5.125 5.009.63 1.417.793 2.306.812 4.437.026 2.893-.342 4.403-1.61 6.584-.45.776-.822 1.517-.826 1.647-.005.13-.08.208-.166.176-.086-.032-.78.393-1.54.944-2.03 1.47-4.876 2.25-8.213 2.25h-2.789v12.856H15.075V71.664l1.175-.25c.647-.136 3.645-.247 6.663-.246zm100.071.04a126.233 126.233 0 0 0 4.095.09l2.73.024.662 2.274c.725 2.491 2.356 8.01 4.378 14.815.718 2.415 1.656 5.59 2.086 7.055l1.858 6.339c.592 2.02 1.076 3.753 1.076 3.852 0 .098-1.432.138-3.183.089l-3.184-.09-1.057-3.605c-.581-1.984-1.2-4.135-1.375-4.782l-.318-1.176h-9.666l-.323 1.176c-.178.647-.785 2.834-1.348 4.86l-1.024 3.684h-3.057c-1.682 0-3.057-.052-3.057-.116 0-.063.413-1.51.918-3.214.505-1.704 1.996-6.837 3.314-11.407a4343.61 4343.61 0 0 1 5.182-17.873c.513-1.745.604-1.995 1.293-1.995zm-73.288.053c1.497-.022 1.907.081 2.061.375.136.259.673 1.952 1.194 3.762.521 1.811 2.672 9.149 4.778 16.305a7159.088 7159.088 0 0 1 3.988 13.573c.144.516-.1.553-3.088.47l-3.245-.09-.83-2.979c-.456-1.638-1.07-3.79-1.363-4.781l-.534-1.803H43.01l-.278 1.019-1.326 4.86-1.048 3.841h-3.1c-2.806 0-3.083-.052-2.933-.549.091-.301.956-3.3 1.922-6.663a6044.56 6044.56 0 0 1 4.127-14.266c1.303-4.484 2.674-9.21 3.048-10.504l.679-2.352 3.704-.157a71.646 71.646 0 0 1 1.89-.061zm-28.664 4.765v5.775c0 4.326.098 5.814.392 5.933.812.327 3.315.19 4.852-.266v-.001c1.064-.316 1.917-.84 2.561-1.574.863-.983 1.064-1.45 1.424-3.32.053-.279-.021-1.255-.166-2.169-.195-1.235-.523-1.93-1.278-2.71-1.234-1.273-2.528-1.664-5.511-1.667h-2.274zm104.79.852l-.547 2.474c-.301 1.361-1.144 4.555-1.873 7.1l-1.325 4.624h7.495l-.21-1.019c-.116-.56-.422-1.654-.68-2.43-.258-.776-1.007-3.512-1.665-6.08l-1.195-4.669zm-78.006.682c-.192-.021-.424.73-.753 2.334-.206 1.007-.98 3.935-1.718 6.506l-1.343 4.676h3.723c2.047 0 3.722-.123 3.722-.273 0-.15-.697-2.725-1.55-5.722-.851-2.997-1.647-5.998-1.767-6.667-.098-.552-.2-.842-.314-.854z" fill="#eaf2ef"/></svg>