<svg xmlns="http://www.w3.org/2000/svg" width="668.571" height="668.571" viewBox="0 0 176.893 176.893"><path d="M0 0v176.893h176.893V0H0zm88.522 55.788c4.424.001 8.834.11 10.9.328 12.686 1.332 22.791 3.96 31.736 8.255 10.012 4.806 16.73 11.145 19.217 18.13 1.302 3.658 1.278 8.335-.061 12.004-1.174 3.218-3.015 5.982-5.95 8.936-9.547 9.61-27.268 16.094-47.876 17.518-2.124.146-13.786.203-14.925.072-.23-.027-1.588-.135-3.018-.24-16.523-1.214-32.332-6.452-42.268-14.004-2.265-1.722-5.489-4.961-6.84-6.874-1.318-1.864-2.721-4.71-3.308-6.705-.597-2.033-.755-5.794-.336-8.018.793-4.207 3.049-8.123 6.878-11.942 9.054-9.029 24.966-15.106 44.868-17.136 2.122-.217 6.56-.324 10.983-.324zm1.304 8.151l-4.077.045-4.077.045-1.3 6.54c-.715 3.597-2.06 10.39-2.988 15.093L75.27 96.361c-.233 1.18-.38 2.219-.324 2.308.061.1 1.631.145 4.052.118l3.952-.045 1.938-9.695 1.938-9.695 4.034.052c3.894.051 4.053.066 4.573.437.347.248.573.576.636.923.087.484-.332 3.058-1.412 8.67-.478 2.485-1.488 7.85-1.614 8.572-.093.536-.06.617.286.71.589.158 7.989.13 8.088-.03.083-.134.282-1.264 2.121-12.018 1.166-6.812 1.164-6.798.982-8.084-.355-2.505-2.136-4.19-5.434-5.14-1.011-.29-1.846-.35-6.036-.432l-4.864-.095.056-.42c.03-.23.356-2.003.723-3.94.366-1.937.71-3.769.763-4.07l.097-.548zm-39.712 9.044l-.63 3.153c-.345 1.734-1.227 6.21-1.958 9.945-.73 3.735-1.448 7.357-1.593 8.05-.589 2.794-2.603 13.122-2.603 13.344 0 .2.66.238 4.021.238h4.022l.085-.377c.098-.43.346-1.71 1.102-5.686l.531-2.793 5.223-.073c4.66-.065 5.367-.111 6.564-.43 1.796-.48 4.469-1.842 5.844-2.976 2.351-1.94 4.387-5.224 5.14-8.29.445-1.816.605-4.725.351-6.374-.432-2.805-2.142-5.166-4.619-6.378-2.565-1.256-2.304-1.229-12.42-1.294l-9.06-.06zm69.861.037c-1.097-.001-2.354.002-3.775.011l-8.377.053-.461 2.348a381.845 381.845 0 0 1-1.066 5.282c-.144.692-.744 3.71-1.333 6.708l-2.509 12.759c-.79 4.02-1.438 7.36-1.438 7.423 0 .063 1.828.094 4.061.07l4.062-.045.123-.67c.068-.37.384-2.03.703-3.69.318-1.66.63-3.339.693-3.73l.114-.714 4.471-.006c5.128-.006 6.315-.123 8.459-.836 2.23-.741 3.942-1.819 5.732-3.607 3.055-3.052 4.601-6.875 4.609-11.398.01-5.597-2.766-8.856-8.356-9.81-.565-.096-2.42-.145-5.712-.148zM60.38 79.363c1.73.004 3.592.085 4.17.24 1.436.382 2.345 1.02 2.895 2.034.399.735.333 2.996-.139 4.783-.86 3.256-2.587 4.97-5.67 5.623-1.349.286-6.735.34-6.735.068 0-.276 2.007-12.295 2.092-12.528.056-.153 1.656-.225 3.387-.22zm58.966.034c3.14.028 4.268.402 5.282 1.557.697.794.934 1.745.793 3.177-.267 2.708-1.103 4.819-2.42 6.109-1.592 1.56-3.376 2.045-7.506 2.045-2.218 0-2.907-.05-2.902-.209.003-.115.475-3.002 1.05-6.415l1.044-6.204 3.184-.053a58.418 58.418 0 0 1 1.475-.007z" fill="#eaf2ef"/></svg>