<svg xmlns="http://www.w3.org/2000/svg" width="668.571" height="668.571" viewBox="0 0 176.893 176.893"><path d="M0 0v176.893h176.893V0H0zm89.002 28.996c5.04.004 8.305.295 12.092 1.038 9.127 1.792 14.897 5.988 16.257 11.824.27 1.156.25 30.377-.022 32.22-.26 1.773-.662 3.055-1.445 4.616-1.973 3.937-5.494 6.437-10.698 7.597l-1.338.299-16.63.072c-17.942.079-17.326.057-19.835.698-6.403 1.635-10.5 6.913-11.27 14.52-.07.7-.121 4.281-.121 8.576v7.372l-5.844-.015c-3.214-.009-5.974-.038-6.135-.066-2.76-.47-5.558-1.974-7.734-4.159-1.536-1.543-2.538-2.976-3.66-5.238-1.787-3.598-2.832-7.503-3.442-12.868-.254-2.224-.359-9.416-.174-11.86.613-8.105 2.707-14.109 6.372-18.266 2.338-2.654 5.164-4.326 8.86-5.245l1-.249 21.718-.035 21.719-.036v-3.949H59.705l.033-7.763.034-7.763.361-1.011c1.761-4.92 7.62-8.27 16.85-9.633 3.272-.483 4.95-.597 9.743-.661.8-.011 1.556-.016 2.276-.015zm-16.832 9.22c-1.897.032-3.709 1.212-4.588 3.068-.343.725-.367.861-.367 2.056 0 1.23.016 1.313.42 2.157 1.082 2.268 3.517 3.449 5.856 2.84.984-.257 1.715-.693 2.45-1.464 1.552-1.627 1.886-3.923.863-5.928-.656-1.285-2.287-2.426-3.818-2.671a4.655 4.655 0 0 0-.816-.058zm49.181 20.766h5.51c4.434 0 5.708.035 6.533.179 2.728.475 5.177 1.75 7.355 3.827 3.5 3.34 5.796 8.337 6.945 15.123l.29 1.707v8.469c0 9.284.007 9.17-.754 12.389-.772 3.27-2.374 6.994-3.95 9.186-2.673 3.717-6.21 6.062-10.451 6.928-1.177.24-1.338.242-22.671.23l-21.486-.013V121.086h28.958v7.424c0 7.062-.011 7.47-.235 8.344-1.343 5.273-7.3 8.892-17.02 10.342-3.293.491-5.67.651-10.25.689-2.366.02-4.695.016-5.175-.01v.001c-1.607-.08-4.81-.4-6.396-.637-9.162-1.376-15.169-4.681-17.623-9.698-1.21-2.474-1.117-.908-1.103-18.482.012-14.662.022-15.401.24-16.672 1.007-5.893 4.9-9.962 11.042-11.542 2.502-.643 1.555-.61 19.597-.694 18.27-.085 17.17-.043 19.654-.759 2.48-.715 4.31-1.77 6.048-3.487 2.763-2.73 4.388-6.454 4.821-11.049.069-.725.121-4.437.121-8.576v-7.298zm-16.29 69.473c-.7 0-1.399.091-1.852.277-3.148 1.283-4.26 5.18-2.237 7.839 1.342 1.764 3.632 2.509 5.636 1.834 1.75-.59 3.02-1.961 3.468-3.746.19-.757.083-2.202-.222-2.991-.491-1.271-1.632-2.415-2.924-2.932-.464-.186-1.168-.28-1.869-.28z" fill="#eaf2ef"/></svg>