<svg xmlns="http://www.w3.org/2000/svg" width="668.571" height="668.571" viewBox="0 0 176.893 176.893"><path d="M0 0v176.893h176.893V0H0zm97.749 39.97c5.002-.03 10.423 1.266 19.321 3.87 6.75 1.976 13.348 4.142 14.663 4.813 3.295 1.681 6.592 5.125 8.304 8.675 2.834 5.874 2.66 6.728-9.016 44.12-5.75 18.414-10.674 33.883-10.944 34.375-.46.841-4.366 1.443-5.736.883-.328-.133-14.685-2.513-31.905-5.288-17.22-2.774-32.631-5.494-34.248-6.045-8.68-2.955-12.826-8.508-12.85-17.207-.013-5.626 5.162-28.718 7.476-33.342 6.016-12.02 21.569-24.57 38.131-30.767 7.22-2.7 11.802-4.057 16.804-4.087zm2.278 4.673c-4.812-.105-11.153 1.267-18.485 4.18-19.629 7.799-36.335 23.853-36.335 34.917 0 2.51.285 3.478 1.335 4.529 2.682 2.684 7.347 3.409 14.167 2.2 22.23-3.937 49.126-24.86 49.154-38.239.011-4.878-3.648-7.453-9.836-7.587zm14.946 3.622c-.603.004-.665.413-.498 1.288.252 1.317.398 1.36 2.639.761l2.372-.633-1.976-.715c-1.27-.46-2.067-.703-2.537-.7zm12.776 4.157c-.938.014-2.104.32-4.019.877l-3.317.964 7.4 2.89c7.673 2.994 8.295 3.186 8.295 2.557 0-1.148-2.702-4.446-4.757-5.806-1.566-1.036-2.396-1.5-3.602-1.482zM113.51 58.21l-1.5 2.876c-.826 1.582-2.827 4.89-4.447 7.35-1.619 2.46-2.836 4.584-2.704 4.721.176.184 19.326 3.638 23.057 4.16.25.035-1.906-2.955-4.795-6.645-2.888-3.69-6.233-8.004-7.431-9.586l-2.18-2.876zm7.008 1.18c-.177.003-.213.085-.086.251 11.227 14.646 12.883 16.611 13.368 15.864.288-.444 1.059-2.514 1.713-4.598.655-2.085 1.19-4.137 1.19-4.56 0-.425-2.607-1.766-5.814-2.99-3.198-1.222-6.987-2.725-8.42-3.34-.97-.417-1.656-.632-1.95-.627zm-11.634 19.496c-.497.018 1.875 2.735 5.71 6.532 7.88 7.8 6.793 7.708 12.11 1.03 1.643-2.064 2.878-3.864 2.742-4-.135-.135-4.528-.927-9.763-1.759-5.234-.832-10.069-1.64-10.742-1.796a.22.22 0 0 0-.057-.007zm-10.646.443l-11.33 6.476c-6.23 3.562-11.388 6.68-11.46 6.928-.073.248 5.159 3.602 11.627 7.453l11.76 7.002.154-2.53c.085-1.39-.05-7.66-.298-13.93L98.24 79.33zm5.07 1.35v6.905c0 3.798.173 9.744.385 13.213l.386 6.31 3.342-2.437c1.838-1.34 5.002-3.801 7.033-5.47 2.03-1.669 3.708-3.172 3.727-3.341.021-.17-3.319-3.654-7.419-7.744l-7.455-7.437zm26.156 10.12l-2.888 3.24c-2.827 3.174-2.896 3.343-3.258 8.051-.204 2.646-.482 6.152-.617 7.792-.136 1.64-.12 2.574.035 2.076.156-.498 1.734-5.463 3.505-11.033h.002l3.221-10.126zM43.41 91.888a.587.587 0 0 0-.333.103c-.328.203-.597.637-.597.966 0 .328.269.43.597.227.328-.203.596-.637.596-.965 0-.205-.104-.322-.263-.331zm16.452 3.529c-.64.004-1.341.013-2.11.025-6.874.108-8.06.263-7.843 1.022.14.492.99 5.368 1.888 10.836l1.635 9.941 5.922-10.24c3.257-5.63 6.05-10.563 6.208-10.962.19-.48-1.225-.652-5.7-.622zm14.183 2.477c-.27-.14 4.138 17.473 5.127 20.486.324.983.176 1.012 5.355-1.045 2.48-.985 6.286-2.688 8.46-3.784l3.954-1.992-11.277-6.744c-6.203-3.71-11.432-6.824-11.62-6.92zM69.329 99.9c-.63.274-12.051 19.283-13.033 21.715-.29.72 8.996.603 13.568-.17 2.159-.366 4.123-.846 4.366-1.067.433-.397-4.148-19.621-4.88-20.477-.004-.005-.011-.005-.021 0zm49.218 2.13c-.638-.097-13.105 10.065-12.973 10.594.393 1.573 10.57 15.25 10.755 14.455.109-.471.669-6.276 1.245-12.902.575-6.626 1.023-12.086.994-12.134-.004-.007-.011-.011-.021-.013zm-72.477.826c-.265-.06-1.31 2.636-2.373 6.142l-1.994 6.579 1.346 1.432c1.288 1.371 4.521 3.268 5.619 3.296.287.008.376-.724.198-1.626-.178-.902-.785-4.726-1.347-8.498-.563-3.772-1.205-7.062-1.426-7.31a.044.044 0 0 0-.023-.015zm54.936 11.737l-7.41 3.609c-4.077 1.984-7.317 3.718-7.202 3.853.22.257 24.584 8.229 25.485 8.339.286.035.26-.273-.056-.683h-.002c-.318-.41-2.882-3.979-5.697-7.931l-5.118-7.187zm-23.828 10.216a4.57 4.57 0 0 0-1.003.106c-1.555.365-1.244.51 2.385 1.12 6.141 1.033 7.003.923 2.982-.38-1.754-.567-3.238-.854-4.364-.846z" fill="#eaf2ef"/></svg>